<svg width="130" height="48" viewBox="0 0 130 48" fill="none" xmlns="http://www.w3.org/2000/svg">
<g clip-path="url(#clip0_2730_35781)">
<path d="M30.1546 4.6C27.0722 1.33333 22.5155 0 16.7526 0H0V36C3.01546 34.8 6.16495 33.6667 9.44845 32.5333V8.33333H16.6856C19.768 8.33333 22.1134 9.4 23.6546 11.3333C25.4639 13.6 25.6649 15.5333 25.6649 27.4667C28.7474 26.6 35.1134 24.9333 35.1134 24.9333C35.0464 13.4 35.0464 9.66667 30.1546 4.6Z" fill="#337ACE"/>
<path d="M17.4227 48C22.4485 48 27.0052 46.6 30.1546 43.4C32.9691 40.6 34.1753 37.3333 34.7113 33.8667C23.1856 38.1333 12.933 42.8667 4.02063 48H17.4227Z" fill="#337ACE"/>
<path d="M85.9743 11.3333C85.7062 13.3333 84.165 15 81.6856 15C80.2784 15 79.0052 14.4 78.201 13.4C77.4639 12.4667 77.3969 11.3333 77.3969 10C77.3969 10 77.3969 7.33333 77.4639 7C78 7 78.8712 7.06666 79.7423 7.06666C79.6753 7.33333 79.6753 9.73333 79.6753 9.73333C79.6753 10.1333 79.6083 11.5333 80.0103 12.1333C80.4124 12.8 81.0155 13 81.6856 13C82.6907 13 83.3608 12.4 83.6289 11.3333H85.9743ZM80.0103 6.2C80.0773 6.06666 80.5464 5.26666 81.6856 5.26666C82.5567 5.26666 83.1598 5.73333 83.4949 6.46666C84.299 6.53333 85.1701 6.66666 85.9743 6.8C85.6392 4.8 84.165 3.2 81.7526 3.2C80.8145 3.2 80.0103 3.46666 79.4072 3.8C78.4021 4.4 77.866 5.13333 77.665 6.06666C78.2011 6.06666 79.0052 6.13333 80.0103 6.2ZM50.3918 4.4C49.6547 3.66666 48.5825 3.33333 47.1753 3.33333H43.1547V12C43.8918 11.7333 44.6289 11.4667 45.433 11.1333V5.33333H47.1753C47.9124 5.33333 48.5155 5.6 48.8505 6.06666C49.3196 6.6 49.3196 7.06666 49.3196 9.93333C50.0567 9.73333 51.598 9.33333 51.598 9.33333C51.598 6.53333 51.598 5.66666 50.3918 4.4ZM64.4639 9.93333C65.3351 9.6 66.2062 8.86666 66.4742 7.8C64.3969 8.13333 61.2474 8.66666 58.299 9.4V14.8667H60.5773V10.2667H62.1856L64.4639 14.8667H67.0773L64.4639 9.93333ZM76.1237 12.8667H70.7629V10.0667H75.3196V8.06666H70.7629V7.26666C70.0258 7.33333 69.2887 7.4 68.4846 7.53333V14.9333H76.1237V12.8667ZM47.3763 14.8667C48.5825 14.8667 49.6547 14.5333 50.4588 13.7333C51.1289 13.0667 51.3969 12.2667 51.531 11.4667C48.7835 12.4667 46.3041 13.6667 44.1598 14.8667H47.3763ZM53.6753 14.8667H55.9536V10C55.1495 10.2 54.4124 10.4667 53.6753 10.7333V14.8667ZM53.6753 8.8C54.4124 8.6 55.1495 8.46666 55.9536 8.33333V3.33333H53.6753V8.8ZM76.1237 3.33333H68.4846V6.53333C69.2217 6.46666 70.0258 6.4 70.7629 6.33333V5.33333H76.1237V3.33333ZM105.407 3.33333H103.062L100.717 10.8667L98.3712 3.33333H96.0258L99.8454 14.8667H101.521L105.407 3.33333ZM94.9536 5.33333V3.33333H86.6444V5.33333H89.6598V14.8667H91.9382V5.33333H94.9536ZM60.5103 5.33333H62.6547C63.5928 5.33333 64.3299 5.86666 64.3299 7L66.6083 6.73333C66.4743 4.86666 65.067 3.33333 62.7887 3.33333H58.232V7.93333C58.9691 7.8 59.7062 7.66666 60.5103 7.53333V5.33333ZM51.732 21.6C51.732 19.5333 50.2578 18.2 48.1804 18.2H43.8918V29.7333H45.098V25H48.1804C50.2578 25 51.732 23.6667 51.732 21.6ZM50.4588 21.6C50.4588 23.1333 49.4536 23.9333 47.9794 23.9333H45.0309V19.3333H47.9794C49.4536 19.3333 50.4588 20.0667 50.4588 21.6ZM61.7835 29.7333L59.0361 24.4667C60.5103 24.1333 61.5825 23.0667 61.5825 21.4C61.5825 19.4 60.1753 18.2 58.165 18.2H53.7423V29.7333H54.9485V24.6667H57.7629L60.3763 29.8H61.7835V29.7333ZM60.3093 21.4667C60.3093 22.8667 59.3712 23.6 57.9639 23.6H54.8815V19.3333H57.9639C59.3712 19.3333 60.3093 20.0667 60.3093 21.4667ZM71.165 29.7333V28.6667H65.2011V24.5333H70.2938V23.4H65.2011V19.3333H71.165V18.2H63.9279V29.7333H71.165ZM80.4794 19.3333V18.2H73.3093V29.7333H74.5155V24.6667H79.6083V23.5333H74.5155V19.3333H80.4794ZM89.5258 29.7333V28.6667H83.5619V24.5333H88.6547V23.4H83.5619V19.3333H89.5258V18.2H82.3557V29.7333H89.5258ZM99.8454 29.7333L97.098 24.4667C98.5722 24.1333 99.6443 23.0667 99.6443 21.4C99.6443 19.4 98.2371 18.2 96.2268 18.2H91.8041V29.7333H93.0103V24.6667H95.8248L98.4382 29.8H99.8454V29.7333ZM98.3712 21.4667C98.3712 22.8667 97.433 23.6 96.0258 23.6H92.9433V19.3333H96.0258C97.433 19.3333 98.3712 20.0667 98.3712 21.4667ZM110.098 29.7333L107.351 24.4667C108.825 24.1333 109.897 23.0667 109.897 21.4C109.897 19.4 108.49 18.2 106.479 18.2H102.057V29.7333H103.263V24.6667H106.077L108.691 29.8H110.098V29.7333ZM108.624 21.4667C108.624 22.8667 107.686 23.6 106.278 23.6H103.196V19.3333H106.278C107.686 19.3333 108.624 20.0667 108.624 21.4667ZM119.479 29.7333V28.6667H113.515V24.5333H118.608V23.4H113.515V19.3333H119.479V18.2H112.309V29.7333H119.479ZM129.732 23.8667C129.732 22.2667 129.799 20.4667 128.593 19.2667C127.923 18.6 126.851 18.2 125.644 18.2H121.691V29.7333H125.644C126.851 29.7333 127.856 29.3333 128.593 28.6667C129.799 27.4667 129.732 25.4667 129.732 23.8667ZM128.459 23.8667C128.459 25.2667 128.459 27 127.722 27.8C127.119 28.4 126.314 28.6667 125.443 28.6667H122.897V19.3333H125.443C126.314 19.3333 127.119 19.5333 127.722 20.2C128.526 21 128.459 22.4667 128.459 23.8667ZM51.866 38.8C51.866 37.2 51.933 35.4 50.7268 34.2C50.0567 33.5333 48.9846 33.1333 47.7784 33.1333H43.8248V44.6667H47.7784C48.9846 44.6667 49.9897 44.2667 50.7268 43.6C51.933 42.4 51.866 40.4 51.866 38.8ZM50.5928 38.8C50.5928 40.2 50.5928 41.9333 49.8557 42.7333C49.2526 43.3333 48.4485 43.6 47.5773 43.6H45.0309V34.2667H47.5773C48.4485 34.2667 49.2526 34.4667 49.8557 35.1333C50.6598 35.9333 50.5928 37.3333 50.5928 38.8ZM61.2474 44.6667V43.5333H55.2835V39.4H60.3763V38.2667H55.2835V34.2H61.2474V33.0667H54.0103V44.6667H61.2474ZM71.8351 44.6667L67.6134 33.1333H66.5413L62.2526 44.6667H63.5928L64.531 42.0667H69.6237L70.5619 44.6667H71.8351ZM69.2217 41H64.866L67.0773 34.9333L69.2217 41ZM80.4124 44.6667V43.5333H74.4485V33.1333H73.2423V44.6667H80.4124ZM89.3918 44.6667V43.5333H83.4279V39.4H88.5206V38.2667H83.4279V34.2H89.3918V33.0667H82.2217V44.6667H89.3918ZM99.7114 44.6667L96.9639 39.4C98.4382 39.0667 99.5103 38 99.5103 36.3333C99.5103 34.3333 98.1031 33.1333 96.0928 33.1333H91.6701V44.6667H92.8763V39.5333H95.6907L98.3041 44.6667H99.7114ZM98.2371 36.3333C98.2371 37.7333 97.299 38.4667 95.8918 38.4667H92.8093V34.2667H95.8918C97.232 34.2 98.2371 34.9333 98.2371 36.3333Z" fill="black"/>
</g>
<defs>
<clipPath id="clip0_2730_35781">
<rect width="130" height="48" fill="white"/>
</clipPath>
</defs>
</svg>
