<svg width="292" height="36" viewBox="0 0 292 36" fill="none" xmlns="http://www.w3.org/2000/svg">
<g clip-path="url(#clip0_1526_28776)">
<path d="M3.65156 35.392L3.23866 34.2291H0.99154L0.58425 35.392H0L1.89039 30.2517H2.35385L4.23862 35.392H3.65156ZM2.12914 31.041L1.16288 33.7572H3.08979L2.12914 31.041Z" fill="white"/>
<path d="M7.62054 35.4426C7.38611 35.4554 7.15155 35.4196 6.93166 35.3373C6.71177 35.255 6.51131 35.1281 6.34293 34.9644C6.17456 34.8008 6.04191 34.6041 5.95337 34.3866C5.86482 34.1692 5.82229 33.9357 5.82847 33.701V30.2517H6.39025V33.6561C6.3757 33.8253 6.39741 33.9956 6.45392 34.1557C6.51043 34.3158 6.60044 34.462 6.71794 34.5845C6.83544 34.7071 6.97774 34.8032 7.13532 34.8664C7.29291 34.9296 7.46216 34.9584 7.63178 34.951C7.80186 34.9587 7.97163 34.9302 8.12981 34.8672C8.28799 34.8042 8.43095 34.7083 8.54919 34.5858C8.66743 34.4633 8.75824 34.3171 8.81558 34.1568C8.87292 33.9965 8.89547 33.8258 8.88174 33.6561V30.2517H9.44352V33.7067C9.44838 33.9434 9.40386 34.1786 9.31281 34.3972C9.22175 34.6159 9.08615 34.8131 8.91464 34.9764C8.74314 35.1397 8.53949 35.2655 8.31669 35.3458C8.09388 35.426 7.85679 35.459 7.62054 35.4426V35.4426Z" fill="white"/>
<path d="M13.0726 30.7433V35.392H12.5248V30.7433H11.0361V30.2517H14.5585V30.7433H13.0726Z" fill="white"/>
<path d="M19.1652 35.392V33.0438H16.7271V35.392H16.1653V30.2517H16.7271V32.5578H19.1652V30.2517H19.727V35.392H19.1652Z" fill="white"/>
<path d="M24.9626 34.9061C24.6114 35.2499 24.1395 35.4425 23.648 35.4425C23.1566 35.4425 22.6847 35.2499 22.3335 34.9061C21.8503 34.423 21.8503 33.9174 21.8503 32.8247C21.8503 31.7321 21.8503 31.2293 22.3335 30.7433C22.6854 30.4009 23.157 30.2092 23.648 30.2092C24.1391 30.2092 24.6107 30.4009 24.9626 30.7433C25.4457 31.2293 25.4457 31.7349 25.4457 32.8247C25.4457 33.9146 25.4457 34.423 24.9626 34.9061ZM24.5356 31.0692C24.2997 30.8337 23.98 30.7014 23.6466 30.7014C23.3133 30.7014 22.9935 30.8337 22.7576 31.0692C22.4346 31.4006 22.3981 31.7489 22.3981 32.8247C22.3981 33.9005 22.4346 34.2488 22.7576 34.5831C22.9935 34.8186 23.3133 34.9509 23.6466 34.9509C23.98 34.9509 24.2997 34.8186 24.5356 34.5831C24.8587 34.2488 24.8952 33.9034 24.8952 32.8247C24.8952 31.7461 24.8587 31.4006 24.5356 31.0692V31.0692Z" fill="white"/>
<path d="M30.5326 35.392L29.3641 33.1084H28.1282V35.392H27.5664V30.2517H29.5326C30.4259 30.2517 31.0551 30.7938 31.0551 31.6842C31.0702 32.0121 30.9639 32.334 30.7567 32.5884C30.5494 32.8428 30.2556 33.0119 29.9315 33.0634L31.1786 35.392H30.5326ZM29.4933 30.7433H28.1198V32.6308H29.4933C30.0916 32.6308 30.5186 32.3191 30.5186 31.6899C30.5186 31.0607 30.1 30.7433 29.4933 30.7433Z" fill="white"/>
<path d="M33.1814 35.392V30.2517H33.7432V35.392H33.1814Z" fill="white"/>
<path d="M35.7349 35.392V34.8724L38.3078 30.7376H35.8388V30.2517H38.9286V30.7152L36.336 34.9061H38.9286V35.392H35.7349Z" fill="white"/>
<path d="M40.9397 35.392V30.2517H44.1306V30.7433H41.4874V32.5578H43.7346V33.0494H41.4874V34.9061H44.1306V35.392H40.9397Z" fill="white"/>
<path d="M49.195 34.9229C48.8416 35.2473 48.3738 35.4181 47.8945 35.3976H46.1333V30.2517H47.8945C48.1321 30.2413 48.3693 30.2782 48.5926 30.3602C48.8158 30.4421 49.0206 30.5676 49.195 30.7292C49.7287 31.2629 49.6978 32.0522 49.6978 32.7685C49.6978 33.4848 49.7174 34.3864 49.195 34.9229ZM48.8102 31.1197C48.6776 30.9902 48.5193 30.8898 48.3457 30.825C48.1721 30.7602 47.9868 30.7324 47.8018 30.7433H46.6782V34.9061H47.8018C47.9866 34.9168 48.1715 34.8892 48.3451 34.8249C48.5187 34.7606 48.677 34.661 48.8102 34.5325C49.1641 34.1617 49.1501 33.4089 49.1501 32.7685C49.1501 32.1281 49.1557 31.4876 48.8102 31.1197V31.1197Z" fill="white"/>
<path d="M57.5488 34.923C57.3745 35.0839 57.1702 35.2087 56.9474 35.2902C56.7247 35.3717 56.488 35.4082 56.251 35.3977H54.4927V30.2518H56.2539C56.491 30.2412 56.728 30.2779 56.9508 30.3599C57.1736 30.4419 57.3778 30.5675 57.5516 30.7293C58.0853 31.263 58.0572 32.0523 58.0572 32.7686C58.0572 33.4848 58.0825 34.3865 57.5488 34.923ZM57.1668 31.1197C57.0337 30.9901 56.875 30.8896 56.7009 30.8248C56.5268 30.76 56.341 30.7322 56.1555 30.7433H55.032V34.9061H56.1555C56.3408 34.9171 56.5262 34.8896 56.7003 34.8253C56.8743 34.761 57.0332 34.6613 57.1668 34.5326C57.5207 34.1618 57.5066 33.409 57.5066 32.7686C57.5066 32.1281 57.5207 31.4877 57.1668 31.1197V31.1197Z" fill="white"/>
<path d="M60.175 35.392V30.2517H63.366V30.7433H60.7256V32.5578H62.9727V33.0494H60.7256V34.9061H63.366V35.392H60.175Z" fill="white"/>
<path d="M68.6887 35.392L68.2786 34.2291H66.0315L65.6214 35.392H65.0371L66.9275 30.2461H67.391L69.2729 35.392H68.6887ZM67.1663 31.0354L66.1972 33.7516H68.1185L67.1663 31.0354Z" fill="white"/>
<path d="M71.124 35.392V30.2517H71.6718V34.9061H74.3009V35.392H71.124Z" fill="white"/>
<path d="M76.2109 35.392V30.2517H79.4018V30.7433H76.7587V32.5578H79.0058V33.0494H76.7587V34.9061H79.4018V35.392H76.2109Z" fill="white"/>
<path d="M84.3595 35.392L83.1882 33.1084H81.9551V35.392H81.3933V30.2517H83.3595C84.2556 30.2517 84.882 30.7938 84.882 31.6842C84.8971 32.0121 84.7908 32.334 84.5836 32.5884C84.3763 32.8428 84.0825 33.0119 83.7584 33.0634L84.9775 35.3976L84.3595 35.392ZM83.3258 30.7376H81.9551V32.6252H83.3258C83.9241 32.6252 84.3511 32.3134 84.3511 31.6842C84.3511 31.0551 83.9241 30.7433 83.3258 30.7433V30.7376Z" fill="white"/>
<path d="M0.960643 20.0668V23.3785H4.8931V24.238H0.960643V28.2098H0V19.2073H5.58409V20.0668H0.960643Z" fill="white"/>
<path d="M12.3957 27.3503C11.7808 27.9503 10.9557 28.2861 10.0966 28.2861C9.23747 28.2861 8.41239 27.9503 7.7975 27.3503C6.95483 26.5076 6.95483 25.6172 6.95483 23.6987C6.95483 21.7802 6.95483 20.8898 7.7975 20.0472C8.41239 19.4472 9.23747 19.1113 10.0966 19.1113C10.9557 19.1113 11.7808 19.4472 12.3957 20.0472C13.2383 20.8898 13.2383 21.7802 13.2383 23.6987C13.2383 25.6172 13.2411 26.502 12.3957 27.3503ZM11.6485 20.6342C11.4445 20.4302 11.2024 20.2684 10.9358 20.158C10.6693 20.0476 10.3837 19.9907 10.0952 19.9907C9.80669 19.9907 9.52104 20.0476 9.25452 20.158C8.988 20.2684 8.74583 20.4302 8.54186 20.6342C7.98008 21.2157 7.90986 21.8224 7.90986 23.7072C7.90986 25.5919 7.97446 26.1986 8.54186 26.7801C8.74546 26.9848 8.9875 27.1472 9.25407 27.258C9.52064 27.3688 9.80649 27.4259 10.0952 27.4259C10.3839 27.4259 10.6697 27.3688 10.9363 27.258C11.2029 27.1472 11.4449 26.9848 11.6485 26.7801C12.2103 26.1986 12.2805 25.5919 12.2805 23.7072C12.2805 21.8224 12.2187 21.2157 11.6485 20.6342Z" fill="white"/>
<path d="M20.6258 28.2098L18.5781 24.2127H16.418V28.2098H15.449V19.2073H18.9067C20.4741 19.2073 21.5724 20.1539 21.5724 21.71C21.5989 22.2839 21.413 22.8475 21.0503 23.2931C20.6876 23.7387 20.1735 24.0351 19.6061 24.1257L21.7409 28.2098H20.6258ZM18.8196 20.0668H16.418V23.3672H18.8196C19.8674 23.3672 20.6117 22.8223 20.6117 21.724C20.6117 20.6258 19.8674 20.0668 18.8196 20.0668Z" fill="white"/>
<path d="M30.5438 28.2098H27.0439V19.2073H30.4146C31.982 19.2073 33.0662 20.1033 33.0662 21.6089C33.0749 22.0333 32.9522 22.4501 32.7148 22.802C32.4775 23.154 32.1372 23.424 31.7404 23.5751C32.1812 23.7279 32.5614 24.0179 32.8252 24.4026C33.0891 24.7873 33.2228 25.2465 33.2067 25.7127C33.2207 27.3503 32.1337 28.2098 30.5438 28.2098ZM30.3528 20.064H28.0046V23.1903H30.3528C31.35 23.1903 32.1224 22.6959 32.1224 21.6201C32.1224 20.5443 31.35 20.0668 30.3528 20.0668V20.064ZM30.4539 24.047H28.0046V27.3503H30.4539C31.5775 27.3503 32.2601 26.7042 32.2601 25.693C32.2601 24.6818 31.5663 24.0498 30.4539 24.0498V24.047Z" fill="white"/>
<path d="M38.4116 28.2856C36.5914 28.2856 35.2769 27.0329 35.2769 25.238V19.2073H36.2347V25.1621C36.2347 26.5273 37.0942 27.4261 38.4088 27.4261C39.7233 27.4261 40.5941 26.5273 40.5941 25.1621V19.2073H41.5519V25.238C41.5547 27.0329 40.2289 28.2856 38.4116 28.2856Z" fill="white"/>
<path d="M46.3664 28.2855C45.0153 28.2855 44.1193 27.9456 43.2766 27.0973L43.9339 26.44C44.244 26.7751 44.6244 27.0373 45.0479 27.2078C45.4715 27.3783 45.9275 27.4528 46.3832 27.426C47.6978 27.426 48.5068 26.8052 48.5068 25.7575C48.5194 25.5504 48.4876 25.343 48.4134 25.1492C48.3393 24.9554 48.2246 24.7797 48.077 24.6339C47.7961 24.3811 47.5602 24.3053 46.9029 24.2042L45.8552 24.0384C45.2498 23.9703 44.6757 23.7338 44.1979 23.3559C43.9676 23.1423 43.7873 22.8805 43.6698 22.5891C43.5523 22.2978 43.5005 21.9842 43.5182 21.6705C43.5182 20.1425 44.6164 19.1425 46.3973 19.1425C46.8871 19.1159 47.3772 19.1896 47.8375 19.3591C48.2978 19.5286 48.7187 19.7905 49.0742 20.1285L48.4562 20.7464C48.177 20.4825 47.847 20.2781 47.4862 20.1458C47.1255 20.0135 46.7416 19.956 46.358 19.9768C45.1586 19.9768 44.4648 20.6453 44.4648 21.6453C44.4509 21.8372 44.48 22.0299 44.55 22.2092C44.62 22.3884 44.729 22.5499 44.8693 22.6817C45.2234 22.9481 45.6405 23.1184 46.0799 23.1761L47.0658 23.3278C47.9085 23.4542 48.3298 23.6311 48.709 23.9598C48.9605 24.1817 49.1592 24.457 49.2904 24.7656C49.4216 25.0743 49.4821 25.4084 49.4674 25.7434C49.4758 27.3136 48.2371 28.2855 46.3664 28.2855Z" fill="white"/>
<path d="M51.4702 28.2098V19.2073H52.428V28.2098H51.4702Z" fill="white"/>
<path d="M60.6159 28.2098L55.8408 20.9881V28.2098H54.8801V19.2073H55.7902L60.5653 26.4009V19.2073H61.5147V28.2098H60.6159Z" fill="white"/>
<path d="M64.0034 28.2098V19.2073H69.5875V20.0668H64.9641V23.2408H68.8965V24.1004H64.9641V27.3503H69.5875V28.2098H64.0034Z" fill="white"/>
<path d="M74.2194 28.2856C72.8655 28.2856 71.9723 27.9458 71.1296 27.0975L71.7869 26.4402C72.0973 26.7756 72.4782 27.0381 72.9023 27.2086C73.3263 27.3791 73.7829 27.4534 74.2391 27.4261C75.5508 27.4261 76.3598 26.8053 76.3598 25.7576C76.3732 25.5505 76.3417 25.3428 76.2675 25.149C76.1933 24.9551 76.0782 24.7794 75.93 24.6341C75.6492 24.3813 75.4132 24.3054 74.7559 24.2043L73.7082 24.0386C73.1035 23.9711 72.5301 23.7346 72.0538 23.356C71.8226 23.1429 71.6415 22.8813 71.5235 22.5899C71.4055 22.2985 71.3535 21.9846 71.3712 21.6707C71.3712 20.1426 72.4695 19.1427 74.2503 19.1427C74.7405 19.1163 75.231 19.1901 75.6917 19.3596C76.1524 19.5291 76.5738 19.7908 76.93 20.1286L76.3092 20.7465C76.0304 20.483 75.7008 20.2788 75.3406 20.1465C74.9804 20.0142 74.597 19.9565 74.2138 19.9769C73.0116 19.9769 72.3178 20.6454 72.3178 21.6454C72.304 21.8374 72.3331 22.03 72.403 22.2093C72.473 22.3886 72.5821 22.55 72.7223 22.6819C73.0773 22.9487 73.4953 23.1191 73.9357 23.1762L74.9217 23.3279C75.7643 23.4543 76.1828 23.6313 76.562 23.9599C76.8135 24.1818 77.0122 24.4571 77.1434 24.7658C77.2747 25.0744 77.3351 25.4085 77.3204 25.7436C77.3261 27.3137 76.0873 28.2856 74.2194 28.2856Z" fill="white"/>
<path d="M81.8933 28.2855C80.5422 28.2855 79.6461 27.9456 78.8035 27.0973L79.4608 26.44C79.7708 26.7751 80.1513 27.0373 80.5748 27.2078C80.9983 27.3783 81.4544 27.4528 81.9101 27.426C83.2247 27.426 84.0336 26.8052 84.0336 25.7575C84.0463 25.5504 84.0144 25.343 83.9403 25.1492C83.8662 24.9554 83.7515 24.7797 83.6039 24.6339C83.323 24.3811 83.0842 24.3053 82.4298 24.2042L81.3792 24.0384C80.7749 23.9698 80.2017 23.7334 79.7248 23.3559C79.4936 23.1428 79.3126 22.8811 79.1946 22.5897C79.0765 22.2983 79.0245 21.9844 79.0422 21.6705C79.0422 20.1425 80.1433 19.1425 81.9242 19.1425C82.414 19.1159 82.9041 19.1896 83.3644 19.3591C83.8247 19.5286 84.2455 19.7905 84.601 20.1285L83.9831 20.7464C83.7039 20.4825 83.3738 20.2781 83.0131 20.1458C82.6524 20.0135 82.2685 19.956 81.8848 19.9768C80.6854 19.9768 79.9916 20.6453 79.9916 21.6453C79.9778 21.8372 80.0069 22.0299 80.0769 22.2092C80.1469 22.3884 80.2559 22.5499 80.3961 22.6817C80.7503 22.9481 81.1673 23.1184 81.6068 23.1761L82.5927 23.3278C83.4354 23.4542 83.8567 23.6311 84.2359 23.9598C84.4869 24.1819 84.685 24.4574 84.8157 24.766C84.9465 25.0746 85.0065 25.4086 84.9915 25.7434C84.9999 27.3136 83.764 28.2855 81.8933 28.2855Z" fill="white"/>
<path d="M55.2454 11.112C54.9336 12.5164 53.9982 13.3591 52.6135 13.3591C52.1621 13.3776 51.714 13.2747 51.3159 13.0613C50.9177 12.8479 50.584 12.5317 50.3495 12.1456C49.8214 11.303 49.8748 9.42945 49.8748 8.85081C49.8748 8.85081 49.8607 5.63463 49.9647 5.23857C48.7288 5.1852 47.5715 5.1515 46.8103 5.13184C46.6979 5.60935 46.726 9.26372 46.726 9.26372C46.726 11.0361 46.8637 12.6344 47.8664 13.9153C48.4363 14.6195 49.1594 15.1844 49.9805 15.5669C50.8017 15.9495 51.6993 16.1397 52.605 16.123C55.9308 16.123 58.0515 13.8759 58.4391 11.112H55.2454Z" fill="#337ACE"/>
<path d="M50.3411 4.0279C50.5971 3.60987 50.9641 3.27109 51.4013 3.04925C51.8384 2.82742 52.3285 2.73123 52.817 2.77141C53.3056 2.81159 53.7734 2.98655 54.1684 3.27682C54.5634 3.5671 54.8702 3.96129 55.0544 4.41553C56.178 4.54193 57.3016 4.69642 58.4251 4.90428C58.0178 2.20212 55.9814 -5.38227e-05 52.6276 -5.38227e-05C51.5088 -0.0218754 50.4053 0.262729 49.4366 0.822953C48.0856 1.66562 47.3749 2.68806 47.0266 3.91274C47.8103 3.9324 48.9648 3.95768 50.3411 4.0279Z" fill="white"/>
<path d="M9.91821 1.64046C8.89297 0.561844 7.39863 0.126465 5.51948 0.126465H0V12.0306C0.999967 11.6373 2.0299 11.2544 3.08979 10.8817V2.8848H5.46049C6.48293 2.8848 7.25257 3.24434 7.74694 3.86791C8.34523 4.62351 8.40422 5.27236 8.40422 9.20482C9.41542 8.92393 11.5109 8.36215 11.5109 8.36215C11.5165 4.54486 11.5165 3.32018 9.91821 1.64046Z" fill="white"/>
<path d="M29.0637 9.15136C29.7279 8.92552 30.3258 8.53876 30.8042 8.0256C31.2825 7.51244 31.6264 6.88884 31.8051 6.21045C28.0358 6.77093 24.2971 7.52092 20.6033 8.45757V15.991H23.6931V9.66258H25.9261L29.0159 15.991H32.6029L29.0637 9.15136Z" fill="#337ACE"/>
<path d="M45.0211 13.2019H37.6955V9.37615H43.9537V9.35368V6.59815H37.6955V5.5083C36.6768 5.60193 35.6469 5.71054 34.6057 5.83413V15.9911H45.0492V13.2271H45.0267L45.0211 13.2019Z" fill="#337ACE"/>
<path d="M5.72735 15.9909C7.37617 15.9909 8.8677 15.5218 9.91823 14.4713C10.7552 13.6173 11.2797 12.5059 11.4069 11.3169C7.91941 12.5954 4.54297 14.1587 1.31177 15.9909H5.72735Z" fill="#337ACE"/>
<path d="M14.3843 15.9911H17.4741V9.30591C16.4179 9.61489 15.388 9.93604 14.3843 10.2694V15.9911Z" fill="#337ACE"/>
<path d="M14.3843 7.67958C15.3955 7.453 16.4254 7.23297 17.4741 7.01949V0.13208H14.3843V7.67958Z" fill="white"/>
<path d="M45.0211 0.13208H34.6001V4.51396C35.6356 4.41658 36.6656 4.33138 37.6899 4.25835V2.89322H45.0379V0.13208H45.0211Z" fill="white"/>
<path d="M79.7473 15.9911H77.43L72.197 0.13208H75.402L78.5873 10.466L81.7725 0.13208H85L79.7473 15.9911Z" fill="#337ACE"/>
<path d="M66.5287 2.89322V15.9911H63.4361V2.89322H59.293V0.13208H70.6718V2.89322H66.5287Z" fill="#337ACE"/>
<path d="M23.6959 2.89322H26.6143C27.9373 2.89322 28.8614 3.66286 28.8614 5.14034L31.9512 4.76957C31.8557 2.22471 29.9597 0.13208 26.8166 0.13208H20.6033V6.42682C21.6257 6.23956 22.6556 6.06447 23.6931 5.90155L23.6959 2.89322Z" fill="white"/>
</g>
<rect x="112" width="1" height="32" fill="white"/>
<g clip-path="url(#clip1_1526_28776)">
<path fill-rule="evenodd" clip-rule="evenodd" d="M145.873 24.4318C142.452 24.4318 141 23.0592 141 19.8564V11.2395H143.866V19.7611C143.866 21.3816 144.421 21.9725 145.911 21.9725C147.402 21.9725 147.956 21.3816 147.956 19.7611V11.2395H150.727V19.8564C150.727 23.0592 149.275 24.4318 145.873 24.4318ZM157.243 24.4318C153.937 24.4318 152.428 23.1354 152.428 20.2949H155.218C155.218 21.5531 155.925 22.106 157.32 22.106C158.581 22.106 159.212 21.6485 159.212 20.7143C159.212 19.6467 158.524 19.1892 156.594 18.8842C153.708 18.4266 152.619 17.3591 152.619 14.9951C152.619 12.3452 154.243 11.0107 157.339 11.0107C160.396 11.0107 161.906 12.3071 161.906 15.0332H159.116C159.116 13.9085 158.524 13.3556 157.281 13.3556C156.097 13.3556 155.485 13.8513 155.485 14.7092C155.485 15.6814 156.154 16.1199 157.989 16.3868C161.027 16.8253 162.078 17.9882 162.078 20.4284C162.078 23.1164 160.492 24.4318 157.243 24.4318ZM164.085 24.203V11.2395H168.919C172.416 11.2395 173.964 12.8409 173.964 16.3487V19.0939C173.964 22.6207 172.416 24.203 168.919 24.203H164.085ZM166.951 21.7628H168.518C170.448 21.7628 171.098 21.0575 171.098 19.0367V16.4059C171.098 14.3851 170.448 13.6797 168.518 13.6797H166.951V21.7628ZM176.353 24.203V11.2395H179.219V24.203H176.353ZM182.086 24.203V11.2395H187.398C190.59 11.2395 191.851 12.4405 191.851 15.3383C191.851 17.4544 191.163 18.6745 189.539 19.1511L192.348 24.203H189.08L186.5 19.418H184.952V24.203H182.086ZM184.952 16.9778H187.093C188.488 16.9778 188.984 16.5012 188.984 15.3383C188.984 14.1563 188.488 13.6797 187.093 13.6797H184.952V16.9778ZM194.182 24.203V11.2395H203.087V13.6988H197.049V16.3868H202.132V18.827H197.049V21.7438H203.279V24.203H194.182ZM210.063 24.4318C206.623 24.4318 205.018 22.7732 205.018 19.1701V16.2724C205.018 12.6693 206.623 11.0107 210.063 11.0107C213.388 11.0107 214.955 12.5549 215.031 15.9102H212.298C212.241 14.1944 211.629 13.47 210.101 13.47C208.496 13.47 207.884 14.2707 207.884 16.3296V19.1129C207.884 21.1719 208.496 21.9725 210.101 21.9725C211.629 21.9725 212.241 21.2481 212.298 19.5514H215.031C214.955 22.8876 213.388 24.4318 210.063 24.4318ZM219.522 24.203V13.7369H216.044V11.2395H225.866V13.7369H222.388V24.203H219.522Z" fill="white"/>
</g>
<defs>
<clipPath id="clip0_1526_28776">
<rect width="85" height="35.4426" fill="white"/>
</clipPath>
<clipPath id="clip1_1526_28776">
<rect width="85" height="13.4211" fill="white" transform="translate(141 11.0107)"/>
</clipPath>
</defs>
</svg>
