<svg width="328" height="48" viewBox="0 0 328 48" fill="none" xmlns="http://www.w3.org/2000/svg">
<g clip-path="url(#clip0_2745_35299)">
<path d="M186.107 34.8C180.1 34.8 177.456 32.64 177.456 27.48V13.56H182.503V27.24C182.503 29.88 183.464 30.84 186.107 30.84C188.75 30.84 189.711 29.88 189.711 27.24V13.56H194.637V27.48C194.758 32.64 192.234 34.8 186.107 34.8ZM206.292 34.8C200.404 34.8 197.761 32.76 197.761 28.2H202.687C202.687 30.24 203.889 31.08 206.412 31.08C208.695 31.08 209.776 30.36 209.776 28.8C209.776 27.12 208.574 26.4 205.09 25.8C199.924 25.08 198.001 23.4 198.001 19.56C198.001 15.24 200.885 13.2 206.412 13.2C211.818 13.2 214.462 15.24 214.462 19.68H209.536C209.536 17.88 208.454 17.04 206.292 17.04C204.249 17.04 203.168 17.88 203.168 19.2C203.168 20.76 204.369 21.48 207.613 21.84C213.02 22.56 214.822 24.36 214.822 28.32C214.942 32.64 212.059 34.8 206.292 34.8ZM218.426 34.44V13.56H226.957C233.204 13.56 235.848 16.08 235.848 21.84V26.28C235.848 31.92 233.084 34.56 226.957 34.56H218.426V34.44ZM223.593 30.48H226.356C229.72 30.48 230.922 29.4 230.922 26.04V21.84C230.922 18.6 229.72 17.4 226.356 17.4H223.593V30.48ZM240.173 34.44V13.56H245.219V34.44H240.173ZM250.385 34.44V13.56H259.757C265.404 13.56 267.686 15.48 267.686 20.16C267.686 23.52 266.485 25.56 263.601 26.28L268.527 34.44H262.76L258.195 26.76H255.432V34.44H250.385ZM255.432 22.8H259.276C261.799 22.8 262.64 22.08 262.64 20.16C262.64 18.24 261.799 17.52 259.276 17.52H255.432V22.8ZM271.771 34.44V13.56H287.511V17.52H276.818V21.84H285.829V25.8H276.818V30.48H287.871V34.44C287.991 34.44 271.771 34.44 271.771 34.44ZM300.006 34.8C293.878 34.8 291.115 32.16 291.115 26.28V21.6C291.115 15.84 293.999 13.08 300.006 13.08C305.893 13.08 308.656 15.6 308.777 21H303.971C303.851 18.24 302.769 17.04 300.126 17.04C297.243 17.04 296.161 18.36 296.161 21.6V26.04C296.161 29.4 297.243 30.6 300.126 30.6C302.889 30.6 303.971 29.4 303.971 26.76H308.777C308.656 32.28 305.893 34.8 300.006 34.8ZM316.706 34.44V17.64H310.579V13.56H328V17.64H321.873V34.44H316.706Z" fill="black"/>
<path d="M157.632 0H158.834V48H157.632V0Z" fill="black"/>
<path d="M2.88352 41.04L0 48H0.841026L1.44176 46.44H4.80586L5.40659 48H6.24762L3.48425 41.04H2.88352ZM1.68205 45.72L3.12381 42.12L4.56557 45.72C4.68571 45.72 1.68205 45.72 1.68205 45.72ZM13.2161 41.04H14.0571V45.72C14.0571 47.16 12.9758 48.12 11.2938 48.12C9.73187 48.12 8.65055 47.16 8.65055 45.72V41.04H9.49158V45.6C9.49158 46.68 10.2125 47.4 11.2938 47.4C12.3751 47.4 13.2161 46.68 13.2161 45.6V41.04ZM16.4601 41.04H21.7465V41.64H19.4637V48H18.6227V41.76H16.3399V41.04H16.4601ZM28.715 41.04H29.556V48H28.715V44.76H25.1106V48H24.2696V41.04H25.1106V44.16H28.715V41.04ZM35.4432 40.92C34.6022 40.92 34.0015 41.16 33.4007 41.64C32.6799 42.24 32.6799 42.96 32.6799 44.4C32.6799 45.84 32.6799 46.56 33.4007 47.16C33.8813 47.64 34.6022 47.88 35.4432 47.88C36.2843 47.88 36.885 47.64 37.4857 47.16C38.2066 46.56 38.2066 45.84 38.2066 44.4C38.2066 42.96 38.2066 42.24 37.4857 41.64C36.885 41.16 36.1641 40.92 35.4432 40.92ZM36.7648 46.92C36.4044 47.16 35.9238 47.4 35.4432 47.4C34.9626 47.4 34.4821 47.16 34.1216 46.92C33.641 46.44 33.641 45.96 33.641 44.52C33.641 43.08 33.7612 42.6 34.1216 42.12C34.4821 41.88 34.9626 41.64 35.4432 41.64C35.9238 41.64 36.4044 41.88 36.7648 42.12C37.2454 42.6 37.2454 43.08 37.2454 44.52C37.2454 45.96 37.2454 46.44 36.7648 46.92ZM46.4967 42.96C46.4967 41.76 45.5355 41.04 44.2139 41.04H41.3304V48H42.0513V44.88H43.8535L45.6557 48H46.6169L44.8147 44.76C45.7758 44.64 46.4967 43.92 46.4967 42.96ZM42.0513 44.28V41.64H44.0938C45.0549 41.64 45.6557 42 45.6557 42.84C45.6557 43.68 44.9348 44.04 44.0938 44.04L42.0513 44.28ZM49.6205 41.04H50.4615V48H49.6205V41.04ZM53.5854 41.04H58.2711V41.64L54.3062 47.4H58.2711V48H53.4652V47.28L57.3099 41.64H53.5854V41.04ZM61.2747 41.04H66.0806V41.64H62.1158V44.04H65.4799V44.64H62.1158V47.16H66.0806V47.76H61.2747V41.04ZM73.5297 41.64C73.0491 41.28 72.4483 41.04 71.6073 41.04H68.9641V48H71.6073C72.4483 48 73.0491 47.76 73.5297 47.4C74.3707 46.68 74.2505 45.48 74.2505 44.4C74.3707 43.44 74.3707 42.36 73.5297 41.64ZM73.0491 46.8C72.6886 47.16 72.0879 47.28 71.4872 47.28H69.8051V41.64H71.4872C72.0879 41.64 72.5685 41.76 73.0491 42.12C73.5297 42.6 73.5297 43.56 73.5297 44.28C73.5297 45.24 73.5297 46.32 73.0491 46.8ZM86.1451 41.64C85.6645 41.28 85.0637 41.04 84.2227 41.04H81.5795V48H84.2227C85.0637 48 85.6645 47.76 86.1451 47.4C86.9861 46.68 86.8659 45.48 86.8659 44.4C86.8659 43.44 86.8659 42.36 86.1451 41.64ZM85.5443 46.8C85.1839 47.16 84.5832 47.28 83.9824 47.28H82.3004V41.64H83.9824C84.5832 41.64 85.0637 41.76 85.5443 42.12C86.0249 42.6 86.0249 43.56 86.0249 44.28C86.0249 45.24 86.0249 46.32 85.5443 46.8ZM89.9897 41.04H94.7956V41.64H90.8308V44.04H94.1949V44.64H90.8308V47.16H94.7956V47.76H89.9897C89.9897 47.88 89.9897 40.92 89.9897 41.04ZM100.202 41.04L97.3187 48H98.1597L98.7604 46.44H102.125L102.725 48H103.566L100.683 41.04C100.803 41.04 100.202 41.04 100.202 41.04ZM99.0007 45.72L100.442 42.12L101.884 45.72C102.004 45.72 99.0007 45.72 99.0007 45.72ZM107.291 47.28H111.256V48H106.45V41.04H107.291V47.28ZM114.019 41.04H118.825V41.64H114.86V44.04H118.224V44.64H114.86V47.16H118.825V47.76H114.019C114.019 47.88 114.019 40.92 114.019 41.04ZM126.995 42.96C126.995 41.76 126.034 41.04 124.712 41.04H121.829V48H122.67V44.88H124.472L126.154 48H127.115L125.313 44.76C126.394 44.52 126.995 43.92 126.995 42.96ZM122.67 44.16V41.64H124.712C125.673 41.64 126.274 42 126.274 42.84C126.274 43.68 125.553 44.04 124.712 44.04L122.67 44.16ZM0 26.04H8.41026V27.24H1.44176V31.8H7.32894V33H1.44176V38.4H0V26.04ZM19.8242 32.16C19.8242 29.64 19.8242 28.44 18.6227 27.24C17.6615 26.4 16.4601 26.04 15.1385 26.04C13.8169 26.04 12.6154 26.52 11.6542 27.24C10.4527 28.44 10.4527 29.64 10.4527 32.16C10.4527 34.68 10.4527 35.88 11.6542 37.08C12.6154 37.92 13.8169 38.28 15.1385 38.28C16.4601 38.28 17.6615 37.8 18.6227 37.08C19.8242 35.88 19.8242 34.68 19.8242 32.16ZM17.4212 36.24C16.8205 36.84 15.9795 37.2 15.1385 37.2C14.2974 37.2 13.4564 36.96 12.8557 36.24C12.0147 35.52 11.8945 34.56 11.8945 32.04C11.8945 29.52 12.0147 28.68 12.8557 27.84C13.4564 27.24 14.2974 27 15.1385 26.88C15.9795 26.88 16.8205 27.12 17.4212 27.84C18.2623 28.56 18.3824 29.52 18.3824 32.04C18.3824 34.56 18.2623 35.4 17.4212 36.24ZM32.3194 29.4C32.3194 27.24 30.6374 25.92 28.3546 25.92H23.1883V38.04H24.63V32.64H27.874L30.8777 38.04H32.5597L29.4359 32.52C31.118 32.28 32.3194 31.2 32.3194 29.4ZM24.63 31.68V27.24H28.2344C29.7963 27.24 30.8777 27.96 30.8777 29.52C30.8777 30.96 29.7963 31.8 28.2344 31.8H24.63V31.68ZM47.578 31.92C48.6593 31.56 49.6205 30.6 49.6205 29.28C49.6205 27.24 47.9385 26.04 45.6557 26.04H40.6095V38.16H45.6557C48.0586 38.16 49.6205 36.96 49.6205 34.8C49.7407 33.36 48.7795 32.4 47.578 31.92ZM41.9311 27.12H45.4154C46.9773 27.12 48.0586 27.72 48.0586 29.28C48.0586 30.84 46.9773 31.44 45.4154 31.44H41.9311V27.12ZM45.5355 36.96H41.9311V32.52H45.5355C47.2176 32.52 48.2989 33.36 48.2989 34.8C48.2989 36.24 47.2176 37.08 45.5355 36.96ZM62.2359 34.2C62.2359 36.6 60.1934 38.4 57.5502 38.4C54.907 38.4 52.8645 36.6 52.8645 34.2V26.04H54.3062V34.08C54.3062 35.88 55.5077 37.08 57.5502 37.08C59.5927 37.08 60.7941 35.88 60.7941 34.08V26.04H62.2359V34.2ZM72.5685 34.8C72.5685 34.2 72.3282 33.6 71.8476 33.36C71.367 33 71.0066 32.88 70.0454 32.76L68.4835 32.52C67.4022 32.4 66.5612 32.04 66.0806 31.56C65.3597 30.96 65.1194 30.24 65.1194 29.28C65.1194 27.12 66.8015 25.8 69.4447 25.8C71.1267 25.8 72.3282 26.28 73.4095 27.12L72.4484 27.96C71.6073 27.36 70.7663 26.88 69.3245 26.88C67.5223 26.88 66.441 27.84 66.441 29.16C66.441 29.76 66.6813 30.24 67.0418 30.48C67.4022 30.72 68.1231 31.08 68.844 31.08L70.2857 31.2C71.4872 31.32 72.2081 31.68 72.6886 32.04C73.4095 32.64 73.77 33.36 73.77 34.44C73.77 36.6 71.9678 37.92 69.0843 37.92C67.0418 37.92 65.7201 37.44 64.3985 36.24L65.3597 35.28C66.441 36.36 67.5223 36.6 68.9641 36.6C71.367 37.08 72.5685 36.24 72.5685 34.8ZM77.0139 26.04H78.4557V38.16H77.0139V26.04ZM83.5018 38.28H82.0601V26.04H83.5018L90.7106 35.76V26.04H92.1524V38.16H90.7106L83.5018 28.44V38.28ZM95.7568 26.04H104.167V27.24H97.3187V31.56H103.206V32.76H97.3187V37.08H104.167V38.28H95.7568V26.04ZM114.259 34.92C114.259 34.32 114.019 33.72 113.538 33.48C113.058 33.12 112.697 33 111.736 32.88L110.174 32.64C109.093 32.52 108.252 32.16 107.771 31.68C107.051 31.08 106.81 30.36 106.81 29.4C106.81 27.24 108.492 25.92 111.136 25.92C112.818 25.92 114.019 26.4 115.1 27.24L114.139 28.08C113.298 27.48 112.457 27 111.015 27C109.213 27 108.132 27.96 108.132 29.28C108.132 29.88 108.372 30.36 108.733 30.6C109.093 30.84 109.814 31.2 110.535 31.2L111.977 31.32C113.178 31.44 113.899 31.8 114.379 32.16C115.1 32.76 115.461 33.48 115.461 34.56C115.461 36.72 113.659 38.04 110.775 38.04C108.733 38.04 107.411 37.56 106.089 36.36L107.051 35.4C108.132 36.48 109.213 36.72 110.655 36.72C113.058 37.08 114.259 36.24 114.259 34.92ZM125.793 34.92C125.793 34.32 125.553 33.72 125.073 33.48C124.592 33.12 124.232 33 123.27 32.88L121.708 32.64C120.627 32.52 119.786 32.16 119.306 31.68C118.585 31.08 118.344 30.36 118.344 29.4C118.344 27.24 120.026 25.92 122.67 25.92C124.352 25.92 125.553 26.4 126.634 27.24L125.673 28.08C124.832 27.48 123.991 27 122.549 27C120.747 27 119.666 27.96 119.666 29.28C119.666 29.88 119.906 30.36 120.267 30.6C120.627 30.84 121.348 31.2 122.069 31.2L123.511 31.32C124.712 31.44 125.433 31.8 125.914 32.16C126.634 32.76 126.995 33.48 126.995 34.56C126.995 36.72 125.193 38.04 122.309 38.04C120.267 38.04 118.945 37.56 117.623 36.36L118.585 35.4C119.666 36.48 120.747 36.72 122.189 36.72C124.592 37.08 125.793 36.24 125.793 34.92Z" fill="black"/>
<path d="M82.6608 15.12C82.1802 17.04 80.8586 18.24 78.696 18.24C77.3744 18.24 76.0528 17.76 75.3319 16.56C74.4909 15.48 74.611 12.84 74.611 12.12C74.611 12.12 74.611 7.68 74.7312 7.2C72.929 7.08 71.1268 7.08 70.0454 7.08C69.9253 7.8 69.9253 12.6 69.9253 12.6C69.9253 15 70.1656 17.16 71.6073 18.84C73.1692 20.64 75.8125 21.84 78.696 21.84C83.622 21.84 86.866 18.72 87.4667 15.12H82.6608Z" fill="#337ACE"/>
<path d="M43.493 12.48C45.2952 11.88 46.9773 10.56 47.578 8.52C43.3729 9.12 37.0051 10.08 30.7575 11.64V21.84H35.4432V13.2H38.8073L43.493 21.84H48.8996C48.7795 21.72 43.493 12.48 43.493 12.48ZM67.4022 17.88H56.4688V12.72H65.8403V8.88H56.4688V7.44C54.9069 7.56 53.4652 7.68 51.7831 7.8V21.6H67.4022V17.88ZM8.53039 21.6C10.9333 21.6 13.2161 21 14.778 19.56C16.2198 18.24 16.8205 16.92 17.0608 15.24C11.4139 17.16 6.36775 19.32 2.04248 21.6H8.53039ZM21.5062 21.6H26.1919V12.6C24.63 13.08 23.0681 13.44 21.5062 13.92V21.6Z" fill="#337ACE"/>
<path d="M119.306 21.6H115.821L108.012 0.239998H112.818L117.623 14.16L122.429 0.239998H127.235L119.306 21.6ZM99.6015 3.84V21.6H94.9158V3.84H88.6682V0.239998H105.729V3.96H99.6015V3.84Z" fill="#337ACE"/>
<path d="M75.3319 5.52C75.452 5.28 76.293 3.72 78.696 3.72C80.4982 3.72 81.6996 4.56 82.3004 6C83.9824 6.24 85.6645 6.36 87.3465 6.72C86.8659 3.12 83.7421 0.119999 78.696 0.119999C76.8938 0.119999 75.0916 0.479999 73.8901 1.2C71.8476 2.28 70.7663 3.72 70.2857 5.4C71.4872 5.4 73.2894 5.4 75.3319 5.52ZM14.8982 2.28C13.3363 0.839999 11.1736 0.239999 8.29011 0.239999H0V16.44C1.5619 15.96 3.00366 15.36 4.68571 14.88V4.08H8.16996C9.73187 4.08 10.8132 4.56 11.6542 5.4C12.4952 6.36 12.6154 7.2 12.6154 12.6C14.1773 12.12 17.3011 11.52 17.3011 11.52C17.181 6.12 17.181 4.56 14.8982 2.28ZM21.5062 10.32C23.0681 10.08 24.5099 9.72 26.1919 9.36V0.239999H21.5062V10.32ZM67.4022 0.239999H51.7831V6.12C53.3451 6 54.907 5.88 56.4689 5.76V3.84H67.5223C67.4022 3.84 67.4022 0.239999 67.4022 0.239999ZM35.4432 3.84H39.7685C41.811 3.84 43.1326 4.8 43.1326 6.96L47.8183 6.48C47.578 3 44.8147 0.239999 40.0088 0.239999H30.7575V8.76C32.3194 8.52 33.7612 8.28 35.4432 8.04V3.84Z" fill="black"/>
</g>
<defs>
<clipPath id="clip0_2745_35299">
<rect width="328" height="48" fill="white"/>
</clipPath>
</defs>
</svg>
